<?xml version="1.0" encoding="UTF-8" standalone="no"?>
<!DOCTYPE svg PUBLIC "-//W3C//DTD SVG 1.1//EN"
 "http://www.w3.org/Graphics/SVG/1.1/DTD/svg11.dtd">
<!-- Generated by graphviz version 2.28.0 (20140111.2315)
 -->
<!-- Title: G Pages: 1 -->
<svg width="278pt" height="172pt"
 viewBox="0.00 0.00 278.50 172.30" xmlns="http://www.w3.org/2000/svg" xmlns:xlink="http://www.w3.org/1999/xlink">
<g id="graph0" class="graph" transform="scale(2.08333 2.08333) rotate(0) translate(7.2 75.5022)">
<title>G</title>
<polygon fill="white" stroke="none" points="-7.2,7.2 -7.2,-75.5022 126.478,-75.5022 126.478,7.2 -7.2,7.2"/>
<text text-anchor="middle" x="59.6392" y="-6.4" font-family="Times,serif" font-size="8.00">Test MP, Generic(I can&#39;t dance)</text>
<!-- proc0_label_node -->
<g id="node1" class="node"><title>proc0_label_node</title>
<text text-anchor="middle" x="32.6392" y="-62.4022" font-family="Times,serif" font-size="8.00">Thread 0</text>
</g>
<!-- eiid0 -->
<g id="node2" class="node"><title>eiid0</title>
<text text-anchor="middle" x="32.6392" y="-46.2014" font-family="Times,serif" font-size="8.00">a: W() x=1</text>
</g>
<!-- eiid1 -->
<g id="node3" class="node"><title>eiid1</title>
<text text-anchor="middle" x="32.6392" y="-19.2" font-family="Times,serif" font-size="8.00">b: W() y=1</text>
</g>
<!-- eiid0&#45;&gt;eiid1 -->
<g id="edge1" class="edge"><title>eiid0&#45;&gt;eiid1</title>
<path fill="none" stroke="black" d="M32.6392,-44.3824C32.6392,-40.7948 32.6392,-35.5125 32.6392,-30.9372"/>
<polygon fill="black" stroke="black" points="34.3891,-30.701 32.6392,-25.7009 30.8891,-30.7009 34.3891,-30.701"/>
<text text-anchor="middle" x="28.6392" y="-37.312" font-family="Times,serif" font-size="8.00">po</text>
</g>
<!-- eiid2 -->
<g id="node5" class="node"><title>eiid2</title>
<text text-anchor="middle" x="86.6392" y="-46.2014" font-family="Times,serif" font-size="8.00">c: R() y=1</text>
</g>
<!-- eiid1&#45;&gt;eiid2 -->
<g id="edge3" class="edge"><title>eiid1&#45;&gt;eiid2</title>
<path fill="none" stroke="red" d="M41.0767,-25.819C49.8458,-30.2038 63.6782,-37.1203 73.8034,-42.1832"/>
<polygon fill="red" stroke="red" points="73.183,-43.8295 78.4378,-44.5004 74.7483,-40.699 73.183,-43.8295"/>
<text text-anchor="middle" x="57.0047" y="-37.515" font-family="Times,serif" font-size="8.00" fill="red">rf</text>
</g>
<!-- proc1_label_node -->
<g id="node4" class="node"><title>proc1_label_node</title>
<text text-anchor="middle" x="86.6392" y="-62.4022" font-family="Times,serif" font-size="8.00">Thread 1</text>
</g>
<!-- eiid3 -->
<g id="node6" class="node"><title>eiid3</title>
<text text-anchor="middle" x="86.6392" y="-19.2" font-family="Times,serif" font-size="8.00">d: R() x=0</text>
</g>
<!-- eiid2&#45;&gt;eiid3 -->
<g id="edge2" class="edge"><title>eiid2&#45;&gt;eiid3</title>
<path fill="none" stroke="black" d="M86.6392,-44.3824C86.6392,-40.7948 86.6392,-35.5125 86.6392,-30.9372"/>
<polygon fill="black" stroke="black" points="88.3893,-30.7009 86.6392,-25.7009 84.8893,-30.701 88.3893,-30.7009"/>
<text text-anchor="middle" x="82.6392" y="-37.312" font-family="Times,serif" font-size="8.00">po</text>
</g>
<!-- eiid3&#45;&gt;eiid0 -->
<g id="edge5" class="edge"><title>eiid3&#45;&gt;eiid0</title>
<path fill="none" stroke="#ffa040" d="M78.2017,-25.819C69.4326,-30.2038 55.6002,-37.1203 45.475,-42.1832"/>
<polygon fill="#ffa040" stroke="#ffa040" points="44.5301,-40.699 40.8406,-44.5004 46.0954,-43.8295 44.5301,-40.699"/>
<text text-anchor="middle" x="56.9473" y="-27.915" font-family="Times,serif" font-size="8.00" fill="#ffa040">fr</text>
</g>
<!-- initeiid3 -->
<g id="node7" class="node"><title>initeiid3</title>
<ellipse fill="red" stroke="red" cx="65.0392" cy="-30.5996" rx="1.44" ry="1.44"/>
</g>
<!-- initeiid3&#45;&gt;eiid3 -->
<g id="edge4" class="edge"><title>initeiid3&#45;&gt;eiid3</title>
<path fill="none" stroke="red" d="M66.4564,-30.0091C67.7047,-29.489 69.6664,-28.6717 71.8866,-27.7466"/>
<polygon fill="red" stroke="red" points="72.7188,-29.2958 76.6611,-25.7573 71.3727,-26.065 72.7188,-29.2958"/>
<text text-anchor="middle" x="68.8102" y="-30.3188" font-family="Times,serif" font-size="8.00" fill="red">rf</text>
</g>
</g>
</svg>
